P_AM2_Trial_4_grf.mot						
version=1						
nRows=139						
nColumns=7						
inDegrees=yes						
endheader						
time	ground_force_vx	ground_force_vy	ground_force_vz	ground_force_px	ground_force_py	ground_force_pz
5.808	-1.846	14.1896	3.8086	-0.058107	0.055348	0.082665
5.817	-1.8391	14.1364	3.8062	-0.058109	0.055347	0.082641
5.825	-1.8323	14.0837	3.8039	-0.058111	0.055347	0.082617
5.833	-1.8257	14.0319	3.8016	-0.058113	0.055347	0.082595
5.842	-1.8193	13.9809	3.7994	-0.058115	0.055347	0.082573
5.85	-1.8132	13.9308	3.797	-0.058116	0.055347	0.082552
5.858	-1.8073	13.8818	3.7944	-0.058117	0.055347	0.082533
5.867	-1.8017	13.8338	3.7914	-0.058117	0.055347	0.082515
5.875	-1.7963	13.7871	3.788	-0.058117	0.055347	0.082499
5.883	-1.7913	13.7415	3.7842	-0.058117	0.055347	0.082484
5.892	-1.7866	13.6973	3.7798	-0.058116	0.055347	0.082472
5.9	-1.7823	13.6544	3.7748	-0.058115	0.055347	0.082461
5.908	-1.7783	13.6128	3.7691	-0.058113	0.055347	0.082453
5.917	-1.7746	13.5727	3.7628	-0.058111	0.055347	0.082447
5.925	-1.7713	13.534	3.7558	-0.058108	0.055346	0.082442
5.933	-1.7684	13.4968	3.7481	-0.058105	0.055346	0.08244
5.942	-1.7658	13.4612	3.7398	-0.058101	0.055346	0.08244
5.95	-1.7636	13.4271	3.7309	-0.058097	0.055347	0.082442
5.958	-1.7617	13.3946	3.7214	-0.058092	0.055347	0.082445
5.967	-1.7601	13.3637	3.7114	-0.058088	0.055347	0.082451
5.975	-1.7589	13.3345	3.701	-0.058082	0.055347	0.082458
5.983	-1.758	13.307	3.6903	-0.058077	0.055347	0.082466
5.992	-1.7574	13.2812	3.6794	-0.058071	0.055347	0.082476
6	-1.7571	13.2572	3.6683	-0.058065	0.055347	0.082486
6.008	-1.757	13.235	3.6572	-0.058059	0.055347	0.082497
6.017	-1.7573	13.2146	3.6463	-0.058053	0.055347	0.082509
6.025	-1.7577	13.196	3.6356	-0.058047	0.055347	0.08252
6.033	-1.7584	13.1794	3.6253	-0.058042	0.055347	0.082532
6.042	-1.7592	13.1647	3.6156	-0.058036	0.055347	0.082543
6.05	-1.7603	13.1519	3.6066	-0.05803	0.055347	0.082554
6.058	-1.7615	13.1412	3.5984	-0.058025	0.055347	0.082564
6.067	-1.7629	13.1325	3.5911	-0.05802	0.055347	0.082573
6.075	-1.7644	13.1258	3.585	-0.058015	0.055347	0.08258
6.083	-1.766	13.1212	3.5801	-0.058011	0.055347	0.082586
6.092	-1.7676	13.1187	3.5765	-0.058007	0.055347	0.082589
6.1	-1.7694	13.1183	3.5743	-0.058004	0.055347	0.082591
6.108	-1.7712	13.1201	3.5737	-0.058002	0.055347	0.082591
6.117	-1.7731	13.124	3.5748	-0.058	0.055347	0.082588
6.125	-1.775	13.1301	3.5775	-0.057999	0.055347	0.082583
6.133	-1.7769	13.1384	3.582	-0.057998	0.055347	0.082575
6.142	-1.7788	13.1488	3.5882	-0.057998	0.055347	0.082564
6.15	-1.7807	13.1614	3.5963	-0.057999	0.055347	0.082551
6.158	-1.7826	13.1762	3.6063	-0.058001	0.055347	0.082535
6.167	-1.7845	13.193	3.6181	-0.058004	0.055347	0.082517
6.175	-1.7863	13.212	3.6317	-0.058007	0.055347	0.082495
6.183	-1.7881	13.233	3.647	-0.058012	0.055347	0.082472
6.192	-1.7899	13.256	3.6641	-0.058017	0.055347	0.082445
6.2	-1.7916	13.2811	3.6829	-0.058022	0.055347	0.082417
6.208	-1.7933	13.308	3.7033	-0.058029	0.055346	0.082386
6.217	-1.795	13.3368	3.7252	-0.058036	0.055346	0.082354
6.225	-1.7966	13.3675	3.7484	-0.058044	0.055346	0.082319
6.233	-1.7981	13.3998	3.773	-0.058053	0.055346	0.082284
6.242	-1.7997	13.4338	3.7987	-0.058062	0.055346	0.082246
6.25	-1.8011	13.4693	3.8254	-0.058072	0.055345	0.082208
6.258	-1.8026	13.5063	3.853	-0.058082	0.055345	0.082169
6.267	-1.804	13.5446	3.8813	-0.058093	0.055345	0.082129
6.275	-1.8054	13.5842	3.9101	-0.058104	0.055345	0.082089
6.283	-1.8068	13.6249	3.9394	-0.058116	0.055345	0.082049
6.292	-1.8082	13.6666	3.969	-0.058128	0.055344	0.082009
6.3	-1.8095	13.7092	3.9986	-0.05814	0.055344	0.081969
6.308	-1.8109	13.7526	4.0281	-0.058153	0.055344	0.081931
6.317	-1.8122	13.7966	4.0574	-0.058165	0.055344	0.081893
6.325	-1.8136	13.8411	4.0863	-0.058178	0.055344	0.081856
6.333	-1.815	13.886	4.1146	-0.058191	0.055343	0.081821
6.342	-1.8164	13.9311	4.1422	-0.058203	0.055343	0.081787
6.35	-1.8178	13.9762	4.169	-0.058216	0.055343	0.081755
6.358	-1.8193	14.0213	4.1947	-0.058229	0.055343	0.081725
6.367	-1.8207	14.0662	4.2193	-0.058241	0.055343	0.081697
6.375	-1.8223	14.1108	4.2427	-0.058253	0.055343	0.081671
6.383	-1.8238	14.1548	4.2647	-0.058265	0.055342	0.081648
6.392	-1.8254	14.1983	4.2853	-0.058277	0.055342	0.081627
6.4	-1.827	14.2409	4.3043	-0.058288	0.055342	0.081609
6.408	-1.8287	14.2826	4.3217	-0.058299	0.055342	0.081593
6.417	-1.8304	14.3233	4.3373	-0.058309	0.055342	0.081579
6.425	-1.8321	14.3629	4.3513	-0.05832	0.055342	0.081568
6.433	-1.8339	14.4011	4.3635	-0.058329	0.055342	0.08156
6.442	-1.8357	14.4379	4.3738	-0.058338	0.055342	0.081554
6.45	-1.8375	14.4732	4.3824	-0.058347	0.055342	0.081551
6.458	-1.8394	14.5068	4.3891	-0.058355	0.055342	0.08155
6.467	-1.8413	14.5388	4.3941	-0.058363	0.055342	0.081552
6.475	-1.8432	14.5689	4.3973	-0.058369	0.055342	0.081556
6.483	-1.8451	14.5971	4.3988	-0.058376	0.055342	0.081562
6.492	-1.847	14.6233	4.3987	-0.058382	0.055342	0.08157
6.5	-1.849	14.6476	4.397	-0.058387	0.055342	0.08158
6.508	-1.8509	14.6698	4.3938	-0.058391	0.055342	0.081591
6.517	-1.8528	14.6899	4.3893	-0.058395	0.055342	0.081604
6.525	-1.8548	14.7078	4.3835	-0.058399	0.055342	0.081618
6.533	-1.8567	14.7237	4.3765	-0.058402	0.055342	0.081634
6.542	-1.8586	14.7374	4.3685	-0.058404	0.055342	0.08165
6.55	-1.8605	14.749	4.3597	-0.058405	0.055342	0.081668
6.558	-1.8624	14.7586	4.3501	-0.058406	0.055342	0.081685
6.567	-1.8643	14.7661	4.3399	-0.058406	0.055342	0.081704
6.575	-1.8661	14.7717	4.3292	-0.058406	0.055342	0.081722
6.583	-1.868	14.7753	4.3183	-0.058405	0.055342	0.08174
6.592	-1.8698	14.777	4.3071	-0.058404	0.055343	0.081758
6.6	-1.8716	14.777	4.296	-0.058402	0.055343	0.081776
6.608	-1.8733	14.7753	4.2851	-0.058399	0.055343	0.081793
6.617	-1.8751	14.7719	4.2743	-0.058396	0.055343	0.081809
6.625	-1.8768	14.7671	4.264	-0.058392	0.055343	0.081824
6.633	-1.8785	14.7608	4.2543	-0.058388	0.055343	0.081838
6.642	-1.8802	14.7533	4.2451	-0.058383	0.055343	0.081851
6.65	-1.8819	14.7445	4.2368	-0.058378	0.055343	0.081862
6.658	-1.8836	14.7345	4.2292	-0.058373	0.055343	0.081872
6.667	-1.8852	14.7236	4.2226	-0.058367	0.055343	0.08188
6.675	-1.8868	14.7117	4.2169	-0.05836	0.055343	0.081887
6.683	-1.8884	14.699	4.2123	-0.058354	0.055343	0.081892
6.692	-1.89	14.6856	4.2088	-0.058347	0.055343	0.081895
6.7	-1.8916	14.6715	4.2064	-0.058339	0.055343	0.081896
6.708	-1.8932	14.6568	4.2051	-0.058331	0.055343	0.081896
6.717	-1.8947	14.6416	4.2049	-0.058323	0.055343	0.081893
6.725	-1.8963	14.6259	4.2058	-0.058315	0.055343	0.081889
6.733	-1.8978	14.6099	4.2077	-0.058306	0.055343	0.081884
6.742	-1.8993	14.5935	4.2107	-0.058298	0.055343	0.081876
6.75	-1.9008	14.5769	4.2146	-0.058289	0.055343	0.081867
6.758	-1.9022	14.56	4.2194	-0.05828	0.055343	0.081857
6.767	-1.9037	14.5429	4.225	-0.05827	0.055343	0.081846
6.775	-1.9051	14.5256	4.2312	-0.058261	0.055343	0.081833
6.783	-1.9065	14.5082	4.2381	-0.058251	0.055343	0.08182
6.792	-1.9079	14.4907	4.2454	-0.058242	0.055343	0.081806
6.8	-1.9092	14.4731	4.2531	-0.058232	0.055343	0.081791
6.808	-1.9106	14.4554	4.2609	-0.058222	0.055343	0.081776
6.817	-1.9119	14.4376	4.2689	-0.058213	0.055343	0.08176
6.825	-1.9132	14.4197	4.2768	-0.058203	0.055343	0.081745
6.833	-1.9145	14.4018	4.2844	-0.058193	0.055343	0.08173
6.842	-1.9158	14.3838	4.2917	-0.058183	0.055343	0.081716
6.85	-1.9171	14.3658	4.2985	-0.058173	0.055343	0.081702
6.858	-1.9184	14.3477	4.3046	-0.058164	0.055343	0.081689
6.867	-1.9197	14.3296	4.31	-0.058154	0.055343	0.081677
6.875	-1.9209	14.3113	4.3144	-0.058144	0.055343	0.081667
6.883	-1.9222	14.2931	4.3177	-0.058134	0.055343	0.081659
6.892	-1.9235	14.2747	4.3198	-0.058125	0.055343	0.081652
6.9	-1.9249	14.2563	4.3206	-0.058115	0.055343	0.081647
6.908	-1.9262	14.2378	4.32	-0.058105	0.055343	0.081645
6.917	-1.9276	14.2192	4.3178	-0.058095	0.055343	0.081645
6.925	-1.929	14.2005	4.314	-0.058086	0.055343	0.081647
6.933	-1.9304	14.1817	4.3084	-0.058076	0.055343	0.081652
6.942	-1.9319	14.1628	4.3011	-0.058066	0.055343	0.08166
6.95	-1.9335	14.1439	4.292	-0.058056	0.055343	0.081671
6.958	-1.9351	14.1248	4.281	-0.058046	0.055343	0.081684
